<?xml version="1.0" standalone="no"?>
<!DOCTYPE svg PUBLIC "-//W3C//DTD SVG 1.1//EN" "http://www.w3.org/Graphics/SVG/1.1/DTD/svg11.dtd" >
<svg xmlns="http://www.w3.org/2000/svg">
<metadata>
Created by FontForge 20120731 at Mon Jul 31 10:40:04 2017
 By admin
</metadata>
<defs>
<font id="iconfont" horiz-adv-x="1024" >
  <font-face 
    font-family="iconfont"
    font-weight="500"
    font-stretch="normal"
    units-per-em="1024"
    panose-1="2 0 6 3 0 0 0 0 0 0"
    ascent="896"
    descent="-128"
    x-height="792"
    bbox="-0.9 -147 10178.8 896"
    underline-thickness="0"
    underline-position="0"
    unicode-range="U+0078-E9C4"
  />
<missing-glyph 
 />
    <glyph glyph-name=".notdef" 
 />
    <glyph glyph-name=".notdef" 
 />
    <glyph glyph-name=".null" horiz-adv-x="0" 
 />
    <glyph glyph-name="nonmarkingreturn" horiz-adv-x="341" 
 />
    <glyph glyph-name="x" unicode="x" horiz-adv-x="1001" 
d="M281 543q-27 -1 -53 -1h-83q-18 0 -36.5 -6t-32.5 -18.5t-23 -32t-9 -45.5v-76h912v41q0 16 -0.5 30t-0.5 18q0 13 -5 29t-17 29.5t-31.5 22.5t-49.5 9h-133v-97h-438v97zM955 310v-52q0 -23 0.5 -52t0.5 -58t-10.5 -47.5t-26 -30t-33 -16t-31.5 -4.5q-14 -1 -29.5 -0.5
t-29.5 0.5h-32l-45 128h-439l-44 -128h-29h-34q-20 0 -45 1q-25 0 -41 9.5t-25.5 23t-13.5 29.5t-4 30v167h911zM163 247q-12 0 -21 -8.5t-9 -21.5t9 -21.5t21 -8.5q13 0 22 8.5t9 21.5t-9 21.5t-22 8.5zM316 123q-8 -26 -14 -48q-5 -19 -10.5 -37t-7.5 -25t-3 -15t1 -14.5
t9.5 -10.5t21.5 -4h37h67h81h80h64h36q23 0 34 12t2 38q-5 13 -9.5 30.5t-9.5 34.5q-5 19 -11 39h-368zM336 498v228q0 11 2.5 23t10 21.5t20.5 15.5t34 6h188q31 0 51.5 -14.5t20.5 -52.5v-227h-327z" />
    <glyph glyph-name="shezhi" unicode="&#xe62b;" 
d="M654 257q-13 -40 -47 -64t-76 -24q-53 0 -91.5 38.5t-38.5 92.5t38.5 92.5t91.5 38.5q40 0 72.5 -21.5t47.5 -57.5q4 -10 14 -14t20 0t13.5 14t-0.5 20q-21 50 -66.5 80.5t-100.5 30.5q-75 0 -128 -53.5t-53 -129.5t53 -129.5t128 -53.5q59 0 106 34t66 89
q3 10 -1.5 19.5t-14.5 13t-19.5 -1t-13.5 -14.5v0zM646 758q-37 0 -61 -27q-17 -18 -39 -32.5t-36 -14.5t-36.5 14.5t-38.5 31.5q-24 26 -61 26q-17 0 -32 -6l-1 -1l-112 -63l-4 -2q-22 -16 -29.5 -43t3.5 -53q2 -4 4 -11q4 -14 4 -23q0 -38 -26.5 -65t-64.5 -27h-4v0
q-24 0 -41.5 -17.5t-22.5 -45.5q-10 -52 -10 -93t10 -93q6 -29 23.5 -46.5t41.5 -16.5h3q38 0 64.5 -27t26.5 -65q0 -10 -4 -23q-2 -7 -4 -12q-11 -25 -3.5 -52t30.5 -43l1 -1l118 -66l4 -1q14 -7 31 -7q37 0 61 26q16 17 38 30.5t35.5 13.5t35 -13t37.5 -30q24 -25 61 -25
q17 0 32 6l1 1l114 64l3 2q23 16 30.5 43t-3.5 52q-2 5 -4 12q-4 13 -4 23q0 38 26.5 65t64.5 27h4q24 -1 41 16.5t23 46.5q10 52 10 93t-10 93q-6 28 -23.5 45.5t-41.5 17.5h-3q-38 0 -64.5 27t-26.5 65q0 9 4 23q2 7 4 12q11 25 3.5 52t-30.5 43l-1 1l-116 65l-3 1
q-15 7 -32 7v0zM646 706q6 0 11 -2h1l112 -63l-1 1q8 -5 10.5 -14.5t-1.5 -18.5q-12 -28 -12 -55q0 -59 41.5 -101t100.5 -42h4q9 0 13 -21q9 -48 9 -84t-9 -84q-4 -21 -13 -21h-4q-59 0 -100.5 -42t-41.5 -101q0 -17 6 -38q3 -10 6 -17q4 -9 1.5 -18.5t-10.5 -14.5l-1 -1
l-110 -61h1q-5 -2 -11 -2q-15 0 -24 9q-24 25 -53.5 42t-56.5 17q-26 0 -56 -17t-54 -43q-9 -9 -24 -9q-6 0 -11 2h-1l-114 63h1q-8 5 -10.5 14.5t1.5 18.5q12 28 12 55q0 59 -41.5 101t-100.5 42h-4q-9 0 -13 21q-9 48 -9 84t9 84q4 21 13 21v0h4q59 0 100.5 42t41.5 101
q0 17 -6 37q-3 10 -6 18q-4 9 -1.5 18.5t10.5 14.5l1 1l108 60h-1q5 2 11 2q14 0 23 -9q24 -27 55 -45t58 -18t57.5 18.5t55.5 45.5q9 9 23 9v0z" />
    <glyph glyph-name="gengduo" unicode="&#xe635;" 
d="M354 769q12 0 21 -9l366 -353q10 -9 10 -22t-10 -22l-366 -353q-9 -9 -22 -8.5t-22 9.5t-8.5 22t9.5 22l343 330l-343 330q-9 9 -9.5 22t8.5 22q10 10 23 10v0z" />
    <glyph glyph-name="cuohao1" unicode="&#xe671;" 
d="M350 152l-72 72l159 161l-160 159l72 73l160 -159l160 160l73 -72l-160 -161l161 -159l-73 -73l-160 159z" />
    <glyph glyph-name="keche" unicode="&#xe664;" 
d="M65 516q-7 -12 5 -20q3 -2 8 -2q7 0 12 6q15 24 27.5 35t27.5 11h18q-56 -66 -73 -151v-63q0 -24 17.5 -41.5t41.5 -17.5h56v5q0 33 23 55.5t55 22.5t55 -22.5t23 -55.5q0 -1 -1 -5h216v5q0 33 22.5 55.5t55 22.5t55 -22.5t22.5 -55.5v-5h15v5q0 33 22.5 55.5t55 22.5
t55 -22.5t22.5 -55.5v-5q24 0 41 17.5t17 41.5v149q-2 9 -7 35t-8.5 37.5t-9.5 28t-14.5 23.5t-19.5 7h-627q-38 0 -81 -37h-47q-26 0 -44 -16t-36 -43v0zM395 459v116h501q8 -12 20 -71q4 -19 6 -28v-17h-527v0zM124 332v24q18 0 30 -8t12 -16q0 -10 -41 -10q-1 5 -1 10v0z
M128 391q16 75 62.5 129.5t82.5 54.5h93v-116h-5q-34 0 -75.5 -14.5t-87 -34.5t-70.5 -27v8v0zM824 328q20 0 34.5 -14.5t14.5 -35t-14.5 -35.5t-35 -15t-35 15t-14.5 35.5t14.5 35t35.5 14.5v0zM824 249q-13 0 -21.5 8.5t-8.5 20.5t8.5 21t21 9t21 -9t8.5 -21t-8.5 -20.5
t-20.5 -8.5v0zM654 328q20 0 34.5 -14.5t14.5 -35t-14.5 -35.5t-35 -15t-35 15t-14.5 35.5t14.5 35t35.5 14.5v0zM654 249q-13 0 -21.5 8.5t-8.5 20.5t8.5 21t21 9t21 -9t8.5 -21t-8.5 -20.5t-20.5 -8.5v0zM283 328q20 0 35 -14.5t15 -35t-15 -35.5t-35.5 -15t-35 15
t-14.5 35.5t14.5 35t35.5 14.5v0zM254 278q0 12 8.5 21t20.5 9t20.5 -9t8.5 -21t-8.5 -20.5t-20.5 -8.5t-20.5 8.5t-8.5 20.5z" />
    <glyph glyph-name="duihao-copy" unicode="&#xe60b;" 
d="M417 98q-26 0 -45 18l-253 254q-18 19 -18 45t18.5 45t44.5 19t45 -19l208 -209l397 399q19 19 45 19t44.5 -18.5t18.5 -45t-18 -44.5l-442 -445q-19 -18 -45 -18z" />
    <glyph glyph-name="wode" unicode="&#xe62d;" 
d="M997 -114h-64q0 86 -36.5 165.5t-103.5 137.5q-17 15 -35 28q-9 6 -20.5 8t-26.5 -2.5t-28.5 -10t-36.5 -16.5q-27 -13 -43 -19.5t-42 -13.5t-49 -7q-49 0 -134 40q-24 11 -37 16.5t-28.5 9.5t-26.5 2.5t-21 -8.5q-17 -12 -32 -25q-68 -58 -105 -138t-37 -167h-64
q0 103 44 197q43 90 120 156q18 16 37 29q40 28 94 17q28 -5 83 -31q72 -34 107 -34t107 34q55 26 82 32q54 11 94 -17q21 -15 40 -31q76 -66 118 -156q44 -93 44 -196zM512 301q-125 0 -213 85q-89 85 -89 205.5t89 205.5q88 84 213 84t213 -84q89 -85 89 -205.5
t-89 -205.5q-88 -85 -213 -85zM512 823q-101 0 -172.5 -68t-71.5 -164t71.5 -164t172.5 -68t173 68t72 164t-72 164t-173 68z" />
    <glyph glyph-name="shouye" unicode="&#xe620;" horiz-adv-x="1112" 
d="M1107 336q-6 -15 -20 -24.5t-31 -9.5h-84q-5 0 -8.5 -3.5t-3.5 -8.5v-304q0 -38 -38 -76t-76 -38h-217v43v277h-146v-277v-43h-217q-39 0 -77 38t-38 76v304q0 5 -3.5 8.5t-7.5 3.5h-85q-17 0 -30.5 9.5t-20.5 24.5q-14 34 12 60l474 473q27 27 65.5 27t65.5 -27
l474 -473q26 -26 12 -60zM1065 365l-474 473q-15 15 -35.5 15t-34.5 -15l-474 -473q-6 -5 -3 -12.5t11 -7.5h85q22 0 38.5 -16t16.5 -39v-304q0 -20 25 -45.5t46 -25.5h173v277q0 7 1 12t4.5 13.5t13 13t25.5 4.5h146q15 0 25 -4.5t13.5 -13t4 -13t0.5 -12.5v-277h174
q20 0 45.5 25.5t25.5 45.5v304q0 23 16 39t39 16h84q8 0 11 7.5t-2 12.5z" />
    <glyph glyph-name="qichepiao" unicode="&#xe6cc;" 
d="M553 633h-292q-46 0 -78.5 -32.5t-32.5 -78.5v-411q0 -14 10 -24.5t25 -10.5h30v-3q0 -21 15.5 -36.5t36.5 -15.5h22q21 0 36.5 15t15.5 37v3h135v-3q0 -21 15 -36.5t37 -15.5h20q21 0 36.5 15t15.5 37v3h30q15 0 25 10.5t10 24.5v135v276q0 46 -33 78.5t-79 32.5z
M628 283h-441v239q0 30 22 52t53 22h292q31 0 53 -22t22 -52zM563 114v-40q0 -6 -4.5 -10.5t-10.5 -4.5h-22q-5 0 -9.5 4.5t-4.5 10.5v40h-209v-40q0 -6 -4 -10.5t-10 -4.5h-22q-6 0 -10.5 4.5t-4.5 10.5v40h-65v132h441v-132h-65v0zM242 189.5q0 -11.5 8 -19.5t19.5 -8
t19.5 8t8 19.5t-8 19.5t-19.5 8t-19.5 -8t-8 -19.5zM513 189.5q0 -11.5 8 -19.5t19.5 -8t20 8t8.5 19.5t-8.5 19.5t-20 8t-19.5 -8t-8 -19.5zM548 746v-65q0 -7 5 -12t12 -5v0q7 0 12 5t5 12v31h259v-398l-81 50l-13 -7l-36 -15q-10 -4 -10 -16v0q0 -9 7.5 -13.5t15.5 -2.5
l37 16l113 -70v490h-326zM782 606h-95q-7 0 -12 5t-5 12t5 12t12 5h95q7 0 12 -5t5 -12t-5 -12t-12 -5zM782 520h-70q-7 0 -12 5t-5 12.5t5 12t12 4.5h70q7 0 12 -4.5t5 -12t-5 -12.5t-12 -5zM782 433h-70q-7 0 -12 5t-5 12.5t5 12t12 4.5h70q7 0 12 -4.5t5 -12t-5 -12.5
t-12 -5zM480 491h-215q-8 0 -12.5 5t-4.5 12.5t4.5 12t12.5 4.5h216q7 0 12 -4.5t4.5 -12t-5 -12.5t-12.5 -5zM517 507q0 -7 5 -12t12 -5t12 5t5 12t-5 12t-12 5t-12 -5t-5 -12z" />
    <glyph glyph-name="iconcopy241" unicode="&#xe61c;" 
d="M412 771q119 0 203 -84.5t84 -202.5q0 -119 -84 -203t-203 -84t-203 84t-84 202.5t84.5 203t202.5 84.5zM412 133q128 0 224 82l272 -272q9 -10 22.5 -10t23 9.5t9.5 23t-10 22.5l-272 272q82 98 82 224q0 95 -47 176t-128 128t-176 47t-175.5 -47.5t-128 -128
t-47.5 -175.5t47.5 -176t128 -128t175.5 -47z" />
    <glyph glyph-name="dianhua-s" unicode="&#xe607;" 
d="M809 486q-31 10 -48.5 27t-21 32t-13.5 30.5t-28 22.5q-43 17 -89.5 26.5t-71.5 9.5l-26 1q-10 0 -28 -0.5t-67 -10t-91 -26.5q-18 -7 -28 -22.5t-14 -30.5t-21.5 -32t-48.5 -27q-70 -23 -110 1.5t-39 72.5q1 31 20 61.5t54.5 51t88 36t97 22.5t93.5 11t67 4.5t27 0.5
q10 0 27.5 -0.5t66.5 -4.5t93.5 -11t97 -22.5t88 -36t54.5 -50.5t20 -61q2 -49 -38.5 -73.5t-110.5 -1.5v0zM384 513h63v-64h128v64h64v-64l256 -224v-149q0 -30 -27 -52t-59 -22h-596q-32 0 -58.5 22t-26.5 52v149l256 224v64v0zM512 96q53 0 90.5 37.5t37.5 90.5
t-37.5 90.5t-90.5 37.5t-90.5 -37.5t-37.5 -90.5t37.5 -90.5t90.5 -37.5v0z" />
    <glyph glyph-name="mg-time-down" unicode="&#xe623;" horiz-adv-x="1074" 
d="M555 621q-11 0 -19 -7.5t-8 -18.5v-274l-194 -65q-10 -5 -13.5 -15t1 -20t15 -13.5t19.5 0.5l209 70q16 8 15 26l0.5 1l0.5 1v289q0 11 -7.5 18.5t-18.5 7.5zM788 552q2 -3 6 -4v0v0q2 -1 4 -1h2.5h2.5q2 0 4 1v0v0q4 1 6 4l107 104q5 5 5 12.5t-5 12.5t-12.5 5t-12.5 -5
l-76 -75v238q0 7 -5.5 12t-12.5 5v0h-1q-7 0 -12 -5t-5 -12v-238l-76 75q-6 5 -13 5t-12.5 -5t-5.5 -12.5t6 -12.5zM969 427q-2 0 -4 -0.5t-4.5 -0.5h-3.5h-39q7 -38 7 -75q0 -107 -52.5 -197.5t-143.5 -143.5t-198 -53t-198 53t-143.5 143.5t-52.5 198t52.5 198
t143.5 143.5t198 53q22 0 48 -4q4 26 12 49q-33 5 -60 5q-90 0 -172.5 -35t-142 -95t-94.5 -142t-35 -172.5t35 -173t94.5 -142t142 -94.5t173 -35t172.5 35t141.5 94.5t95 142t35.5 172.5q0 36 -7 76z" />
    <glyph glyph-name="mg-time-up" unicode="&#xe624;" horiz-adv-x="1074" 
d="M716 727l77 75v-238q0 -7 5 -12t12 -5v0h1q7 0 12 5t5 12v238l76 -75q6 -5 13 -5t12.5 5t5.5 12.5t-5 12.5l-107 104q-2 2 -6 4v0v0q-2 1 -4 1h-2.5h-2.5q-2 0 -4 -1v0v0q-4 -2 -6 -4l-107 -104q-5 -5 -5 -12.5t5.5 -12.5t12.5 -5t12 5zM564.5 621q-10.5 0 -18.5 -7.5
t-8 -18.5v-274l-194 -65q-10 -5 -13.5 -15t1 -20t14.5 -13.5t20 0.5l209 70q16 8 15 26l0.5 1l0.5 1v289q0 11 -8 18.5t-18.5 7.5zM979 427q-2 0 -4.5 -0.5t-4.5 -0.5h-4h-38q7 -38 7 -75q0 -107 -52.5 -197.5t-143.5 -143.5t-198 -53t-198 53t-143.5 143.5t-52.5 198
t52.5 198t143.5 143.5t198 53q21 0 48 -4q4 26 12 49q-33 5 -60 5q-90 0 -172.5 -35t-142 -95t-95 -142t-35.5 -172.5t35.5 -173t95 -142t142 -94.5t172.5 -35t172.5 35t142 94.5t95 142t35.5 172.5q0 36 -7 76z" />
    <glyph glyph-name="dingdan-copy" unicode="&#xe602;" 
d="M839 873h-668q-74 0 -91 -70l-3 -23v-792q0 -4 0.5 -10.5t5.5 -22.5t14 -28t28.5 -22t46.5 -10h553l205 163v722q-1 4 -1.5 10.5t-5.5 22.5t-13.5 28t-27 22t-43.5 10v0zM883 81l-184 -140h-507q-56 0 -67 56l-2 14v746q0 3 0.5 7.5t4 16.5t10 21.5t21 17t33.5 7.5h622
q20 0 34 -7.5t20.5 -17.5t10.5 -20.5t4 -17.5v-7v-676v0zM238 361h530v-47h-530v47zM238 547h530v-46h-530v46zM238 734h254v-47h-254v47zM837 198h-207v-210h46v163h161v47z" />
    <glyph glyph-name="dingdan" unicode="&#xe6c3;" 
d="M905 -128h-786q-42 0 -72 30t-30 72v785q0 43 30 73t72 30h103q14 0 24 -10t10 -24t-10 -24t-24 -10h-103v0q-14 0 -24 -10t-10 -25v-785q0 -14 10 -24t24 -10h786v0q14 0 24 10t10 24v785q0 15 -10 25t-24 10h-103q-14 0 -24 10t-10 24t10 24t24 10h103q42 0 72 -30
t30 -73v-785q0 -42 -30 -72t-72 -30zM631 828h-238q-15 0 -25 10t-10 24t10 24t25 10h238q15 0 25 -10t10 -24t-10 -24t-25 -10zM256 623h512q14 0 24 -10t10 -24t-10 -24t-24 -10h-512q-14 0 -24 10t-10 24t10 24t24 10zM256 213h512q14 0 24 -10t10 -24t-10 -24t-24 -10
h-512q-14 0 -24 10t-10 24t10 24t24 10zM256 418h512q14 0 24 -10t10 -24t-10 -24t-24 -10h-512q-14 0 -24 10t-10 24t10 24t24 10z" />
    <glyph glyph-name="1-03" unicode="&#xe6b6;" 
d="M244 364h76v-26h-76v26zM537 384q-9 4 -20 4v0q-6 0 -13 -2q-35 72 -88 143q-3 -2 -11 -6.5t-12 -6.5q35 -78 87 -147q-8 -12 -8 -26q0 -19 13 -32.5t32 -13.5t32.5 13.5t13.5 32.5q0 4 -1 9q44 39 76 87l-22 20q-42 -31 -79 -75zM509 167h26v-76h-26v76zM647 220l53 -54
l19 19l-54 54zM392 208l-19 18l-54 -53l19 -19zM379 500l-53 54l-19 -19l54 -54zM707 547l-19 19l-54 -54l19 -18zM706 382h76v-26h-76v26zM514 43q-130 0 -222.5 92.5t-92.5 222.5q0 115 74 203t186 107l3 -50l140 95l-151 75l4 -60q-135 -22 -225 -126.5t-90 -243.5
q0 -101 50 -187.5t136.5 -136.5t187.5 -50q98 0 182.5 46.5t135.5 128t56 179.5l-59 4q-7 -126 -98 -212.5t-217 -86.5zM829 358h60q0 51 -14 101l-57 -16q11 -42 11 -85zM813 457l57 19q-12 36 -32 70l-51 -30q16 -28 26 -59zM778 531l49 32q-20 32 -47 58l-42 -41
q22 -23 40 -49zM765 636q-35 31 -76 53l-28 -52q35 -19 64 -45z" />
    <glyph glyph-name="dingdan1" unicode="&#xe65d;" 
d="M909 858h-150q0 -4 -1 -11t-4.5 -24.5t-9.5 -31t-18.5 -24.5t-28.5 -11h-371q-2 1 -5.5 3t-12.5 10t-16 18.5t-13 29t-6 41.5h-167q-3 -1 -6.5 -2t-14 -7t-19 -14t-16.5 -23t-10 -34q-4 -29 -4 -240.5t1.5 -396.5t2.5 -197q0 -2 0.5 -5.5t5.5 -13t12.5 -17.5t23.5 -15.5
t37 -10.5h794q3 1 8.5 1.5t19.5 5.5t24.5 12.5t19 23.5t8.5 37v812q-1 3 -2 9t-6.5 20t-13.5 25.5t-24.5 20.5t-37.5 9zM739 143h-450q-16 0 -27 11t-11 26.5t11 26.5t27 11h450q16 0 26.5 -11t10.5 -26.5t-10.5 -26.5t-26.5 -11zM739 328h-450q-16 0 -27 11t-11 26.5
t11 26.5t27 11h450q16 0 26.5 -11t10.5 -26.5t-10.5 -26.5t-26.5 -11zM739 531h-450q-16 0 -27 11t-11 26.5t11 26.5t27 11h450q16 0 26.5 -11t10.5 -26.5t-10.5 -26.5t-26.5 -11zM404 783h211q23 0 39.5 16t16.5 39t-16.5 39t-39.5 16h-211q-23 0 -39.5 -16t-16.5 -39
t16.5 -39t39.5 -16z" />
    <glyph glyph-name="rili" unicode="&#xe600;" horiz-adv-x="1000" 
d="M844 -73h-688q-26 0 -44 18.5t-18 44.5v687q0 26 18 44.5t44 18.5h63v-32q0 -38 27.5 -65.5t66 -27.5t66 27.5t27.5 65.5v32h188v-32q0 -38 27.5 -65.5t66 -27.5t66 27.5t27.5 65.5v32h63q26 0 44 -18.5t18 -44.5v-687q0 -26 -18 -44.5t-44 -18.5zM844 521h-688v-531h688
v531zM312 365h-93v93h93v-93zM312 208h-93v94h93v-94zM312 52h-93v94h93v-94zM469 365h-94v93h94v-93zM469 208h-94v94h94v-94zM469 52h-94v94h94v-94zM625 365h-94v93h94v-93zM625 208h-94v94h94v-94zM625 52h-94v94h94v-94zM781 365h-93v93h93v-93zM781 208h-93v94h93v-94
zM781 52h-93v94h93v-94zM686.5 646q-25.5 0 -43.5 18t-18 44v64q0 25 18 43.5t43.5 18.5t43.5 -18.5t18 -43.5v-64q0 -26 -18 -44t-43.5 -18zM311.5 646q-25.5 0 -43.5 18t-18 44v64q0 25 18 43.5t43.5 18.5t43.5 -18.5t18 -43.5v-64q0 -26 -18 -44t-43.5 -18z" />
    <glyph glyph-name="shouye1" unicode="&#xe608;" horiz-adv-x="1026" 
d="M1011 382l-470 396q-1 1 -4 3v0.5v0.5q-10 11 -24.5 12.5t-25.5 -7.5l-474 -391q-12 -9 -13 -23.5t8.5 -26t24 -12.5t25.5 8l50 41v-417q0 -39 27.5 -66.5t66.5 -27.5h235v206q0 12 8.5 20.5t21.5 8.5h104q12 0 21 -8.5t9 -20.5v-206h235q38 0 65.5 27.5t27.5 66.5v391
l37 -30q11 -10 25.5 -8.5t23.5 13t8 26t-12 24.5v0v0z" />
    <glyph glyph-name="qiche" unicode="&#xe60e;" horiz-adv-x="1474" 
d="M1384 -128h-180q-38 0 -64.5 26t-26.5 62q0 12 -8.5 20.5t-20.5 8.5h-1h-692v0q-12 0 -21 -8.5t-9 -20.5q0 -36 -26.5 -62t-63.5 -26h-181q-37 0 -63.5 26t-26.5 62v439q0 38 9 69t20 47t25 27t20.5 13.5t10.5 3.5q8 2 9 5t-4 10l-18 24q-26 33 -10.5 63t58.5 30h61
q18 0 43 10t38 23q9 8 24 21t58.5 42t90.5 51t117 40t140 18h121v-1q65 -3 130.5 -22t109 -41t84 -49t54.5 -39t22 -20q13 -13 37.5 -23t43.5 -10h60q44 0 59 -30t-11 -63l-18 -24q-5 -7 -4 -10t10 -5q4 -1 10.5 -3.5t20.5 -13.5t25 -27t20 -47t9 -69v-439q0 -36 -26.5 -62
t-64.5 -26zM60 -40q0 -12 9 -20.5t21 -8.5h181v0q12 0 21 8.5t9 20.5q0 18 7 35q-167 23 -248 76v-111zM1414 399q0 25 -4 45t-9 30t-12 17.5t-10 9l-5 2.5q-39 9 -50.5 42t12.5 64l18 24h-60q-31 0 -66.5 14t-57.5 36q-7 6 -19.5 16.5t-52.5 37.5t-82.5 47t-106.5 36.5
t-127 16.5h-90q-63 0 -127 -16.5t-106.5 -37t-82 -46.5t-52.5 -37t-19 -17q-22 -22 -57.5 -36t-66.5 -14h-61l18 -24q25 -32 13 -64.5t-52 -42.5q-39 -19 -39 -103v-234q0 -22 30 -43t76.5 -35.5t98 -24.5t99.5 -15l-1 -4q14 5 28 5h692q15 0 28 -5v4q48 5 99.5 15t98 24.5
t76 35.5t29.5 43v234zM1414 71q-80 -53 -248 -76q8 -17 8 -35q0 -12 8.5 -20.5t21.5 -8.5h180h1q12 0 20.5 8.5t8.5 20.5v111zM1198 212q-40 0 -89 12q-86 21 -109 69q-7 14 -7 31q0 15 7 29l5 11l341 101l5 -20h1v-3l1 -8q2 -5 3.5 -13t2.5 -29t-1 -41t-10.5 -44.5
t-23.5 -42.5q-42 -52 -126 -52zM512 633h451v-59h-451v59zM482 293q-22 -48 -109 -69q-49 -12 -88 -12q-85 0 -128 52q-18 22 -27.5 51t-9 55.5t1.5 40t3 22.5q0 2 -1 6t-1 6l5 -1l4 21l345 -100l6 -12q6 -11 6 -29l3 -1q-1 -2 -3 -5q-1 -13 -7 -25z" />
    <glyph glyph-name="straight" unicode="&#xe72e;" horiz-adv-x="10240" 
d="M128 448q-29 0 -46.5 -17.5t-17.5 -46.5t17.5 -46.5t46.5 -17.5h9984q25 0 44.5 18.5t22 44t-15.5 52.5l-384 384q-19 19 -44.5 19t-45 -19t-19.5 -44.5t20 -44.5l268 -269h-9830v-13z" />
    <glyph glyph-name="duihao" unicode="&#xe60c;" 
d="M980 456q-23 150 -132.5 258t-256.5 132q-79 12 -155 -1t-139.5 -46t-116 -85t-86 -115t-47.5 -139t-3 -155q23 -149 132.5 -257t256.5 -132q79 -12 155.5 0.5t140.5 45.5t116.5 85t86.5 115.5t47 139.5t1 154zM773 507l-277 -302q-4 -5 -12 -5t-13 5h-6l-170 163
q-4 5 -4 13t4.5 12.5t12.5 4.5t12 -5l164 -150l264 282q4 5 12 5t13 -5q9 -9 0 -18z" />
    <glyph glyph-name="gengduo2" unicode="&#xe61e;" 
d="M507 -68q-10 0 -18 7.5t-8 17.5l2 820q0 10 7.5 17.5t18 7.5t18 -7.5t7.5 -17.5l-2 -820q0 -11 -7.5 -18t-17.5 -7zM99 338q-10 0 -18 7.5t-8 18t8 18t18 7.5l819 2q10 0 18 -8t8 -18t-8 -17.5t-18 -7.5z" />
    <glyph glyph-name="dianhua" unicode="&#xe610;" 
d="M522.5 860q-96.5 0 -185 -37.5t-152 -101.5t-101.5 -152t-38 -185t38 -185.5t101.5 -152t152 -101.5t185 -38t185 38t152 101.5t101.5 152t38 185.5t-38 185t-101.5 152t-152 101.5t-185 37.5zM708 165q-28 -28 -112 3.5t-170.5 118t-118 170.5t-4.5 112q3 2 11.5 11
t12.5 13t12.5 10.5t14 8.5t14.5 3t16.5 -2.5t17.5 -10.5t19 -19q18 -23 26 -39.5t4.5 -29.5t-9 -20.5t-19.5 -20.5l-5 -5q-25 -26 69 -120t120 -69q2 2 5 6q13 13 20.5 18.5t20.5 9t29.5 -4t39.5 -26.5q12 -9 19 -19t10.5 -17.5t2 -16.5t-3 -14.5t-8.5 -14t-10.5 -12.5
t-12.5 -12.5t-11 -10.5z" />
    <glyph glyph-name="cuohao" unicode="&#xe644;" 
d="M510.5 -61q-90.5 0 -173.5 35.5t-142.5 95t-95 142.5t-35.5 173.5t35.5 173.5t95 142.5t142.5 95t173.5 35.5t173.5 -35.5t142.5 -95t95 -142.5t35.5 -173.5t-35.5 -173.5t-95 -142.5t-142.5 -95t-173.5 -35.5zM555 384l138 137q10 9 10 22t-9.5 22.5t-22.5 9.5t-22 -9
l-139 -137l-136 137q-9 9 -22 9t-22.5 -9t-9.5 -22.5t9 -22.5l136 -137l-137 -135q-9 -9 -9 -22.5t9 -23t22 -9.5q14 0 23 10l137 135l138 -138q10 -10 23 -10v0q13 0 22.5 9.5t9.5 22.5t-9 23z" />
    <glyph glyph-name="wechat-payment" unicode="&#xe6a0;" 
d="M413 285q-24 -12 -36.5 -8.5t-16.5 13.5l-4 10l-62 145q-16 45 2 42q8 -2 18 -11q39 -29 68 -46q13 -8 28.5 -9.5t24.5 1.5l9 3l408 187q-57 72 -146.5 113t-193.5 41q-113 0 -209 -48.5t-151.5 -132t-55.5 -181.5q0 -85 42 -159t116 -125l-18 -100q0 -1 -0.5 -2.5
t-0.5 -6.5t2 -6.5t6.5 -3t13.5 3.5q24 11 101 62q74 -26 154 -26q113 0 209 48.5t151.5 132t55.5 182.5q0 85 -44 161q-429 -257 -471 -280zM413 285z" />
    <glyph glyph-name="gengduo1" unicode="&#xe601;" 
d="M751 336l-382 -382q-20 -20 -48 -20t-48 20t-20 48t20 48l335 334l-335 334q-20 20 -20 48t20 48t48 20t48 -20l382 -382q20 -20 20 -48t-20 -48z" />
    <glyph glyph-name="wode1" unicode="&#xe64b;" 
d="M941 -128h-858q-19 0 -33 14t-14 34q0 139 74 254.5t196 174.5q25 -20 76.5 -56t90.5 -62l39 -26q149 99 206 144q122 -59 196 -174.5t74 -254.5q0 -20 -14 -34t-33 -14zM512 324q-118 0 -202 84t-84 202.5t84 202t202 83.5t202 -83.5t84 -202t-84 -202.5t-202 -84z" />
    <glyph glyph-name="duihao1" unicode="&#xe604;" 
d="M512 896q-139 0 -257 -68.5t-186.5 -186.5t-68.5 -257t68.5 -257t186.5 -186.5t257 -68.5t257 68.5t186.5 186.5t68.5 257t-68.5 257t-186.5 186.5t-257 68.5zM475 111q-58 74 -122.5 127.5t-113.5 71.5l153 95l74 -147q5 12 14 33t40 78t64.5 105.5t86 101.5t105.5 81
q-1 -15 -5 -50t-5 -54t3.5 -48.5t15.5 -56.5q-39 -9 -104 -71.5t-121 -137t-85 -128.5z" />
    <glyph glyph-name="mima" unicode="&#xe625;" 
d="M816 537h-512v103q0 84 60 144t145 60t145 -60t60 -144q0 -11 7.5 -18.5t18 -7.5t18 7.5t7.5 18.5q0 105 -75 180.5t-181 75.5t-181 -75.5t-75 -180.5v-103h-51q-64 0 -109 -45t-45 -108v-358q0 -64 45 -109t109 -45h614q64 0 109 45t45 109v358q0 63 -45 108t-109 45z
M918 26q0 -43 -30 -73t-72 -30h-614q-42 0 -72 30t-30 73v358q0 42 30 72t72 30h614q42 0 72 -30t30 -72v-358zM509 384q-53 0 -90.5 -37.5t-37.5 -90.5q0 -46 29 -81.5t74 -44.5q-1 -1 -1 -2v-77v0q0 -10 7.5 -17.5t18.5 -7.5v0v0q11 0 18.5 7.5t7.5 17.5v0v77q0 1 -1 2
q45 9 74 44.5t29 81.5q0 53 -37.5 90.5t-90.5 37.5zM509 179q-32 0 -54.5 22.5t-22.5 54.5t22.5 54.5t54.5 22.5t54.5 -22.5t22.5 -54.5t-22.5 -54.5t-54.5 -22.5z" />
    <glyph glyph-name="diqu" unicode="&#xe9c4;" 
d="M754 858q-113 0 -192 -80.5t-79 -192.5q0 -141 137 -333q50 -71 122 -152q6 -6 11.5 -6t11.5 6q50 50 122 152q137 195 137 333q0 112 -79.5 192.5t-190.5 80.5zM753.5 421q-68.5 0 -116.5 49t-48 118t48 117.5t116.5 48.5t117 -48.5t48.5 -117.5t-48.5 -118t-117 -49z
M489 175l-409 46l60 203q2 9 9.5 14.5t15.5 5.5h305q20 -57 51 -114zM432 -90h-404q-15 0 -22 12q-6 5 -6 23l57 195l415 -46zM936 249l37 -129l-123 15q19 20 72 91q0 2 14 23zM995 37l26 -89q0 -2 1.5 -4.5t1.5 -4.5q0 -11 -8 -20t-21 -9h-477l36 176z" />
    <glyph glyph-name="down-trangle" unicode="&#xe612;" 
d="M531 222l286 286q8 8 8 20t-8 21q-8 8 -20 8t-21 -8l-266 -266l-264 265q-9 8 -21 8t-20 -8t-8 -20t8 -21l284 -285q10 -8 21.5 -8t20.5 8z" />
    <glyph glyph-name="qiehuan" unicode="&#xe603;" horiz-adv-x="1365" 
d="M1003.5 237q-8.5 4 -17 1t-12.5 -11q-32 -67 -90.5 -111.5t-130.5 -57.5q-105 -20 -200 29.5t-139 145.5l164 -11q2 0 5 1q8 1 13.5 7.5t5.5 14.5v1q-1 8 -7 14t-15 7l-198 12h-1q-9 0 -15 -6q-7 -6 -7 -15v-1q-1 -5 1 -9q43 -124 157.5 -191t243.5 -42q83 15 149.5 66
t103.5 126q4 8 1 17t-11.5 13zM630 711v0q-83 -15 -149.5 -66t-103.5 -126q-1 -4 -1 -9q0 -14 12 -20q8 -3 16 -0.5t13 9.5q32 66 90.5 110.5t130.5 57.5v0q104 20 199.5 -29t139.5 -145l-170 11h-2q-8 0 -14 -6q-7 -6 -8 -15v-2q0 -8 6 -14q6 -7 15 -8l198 -12h2h4h1
q13 0 20 12q0 1 1 2q2 4 2 9q0 4 -1 7q-43 125 -157.5 191.5t-243.5 42.5zM1136 446q-17 90 -67 165q-48 73 -120.5 122.5t-158.5 67.5q-88 20 -178 3t-165 -67q-73 -49 -122.5 -121.5t-67.5 -157.5q-19 -89 -2.5 -178.5t67.5 -165.5q48 -72 120.5 -121.5t157.5 -68.5
q89 -19 178.5 -2t165.5 67q73 48 122 120.5t68 158.5q19 88 2 178zM771.5 -39.5q-109.5 -20.5 -212.5 16t-174 119t-92 191.5t15.5 212t119 174.5t191.5 92t212 -16t174.5 -119t92 -191.5t-15.5 -212t-118.5 -174.5t-192 -92z" />
    <glyph glyph-name="gengduo-copy" unicode="&#xe6cd;" 
d="M670 -1q-12 0 -21 9l-366 353q-10 9 -10 22t10 22l366 353q9 9 22 8.5t22 -9.5t8.5 -22t-9.5 -22l-343 -330l343 -330q9 -9 9.5 -22t-8.5 -22q-10 -10 -23 -10v0z" />
    <glyph glyph-name="guocheng" unicode="&#xe605;" horiz-adv-x="1365" 
d="M1254 350l-80 26v1h-1l-361 116v-116h-701v-37h1143v10z" />
    <glyph glyph-name="guocheng1" unicode="&#xe606;" horiz-adv-x="1365" 
d="M797 341h-717v-8l716 2l373 -2h70v4l-83 30v-28z" />
    <glyph glyph-name="dui" unicode="&#xe609;" horiz-adv-x="1365" 
d="M651 379zM201 379v0q0 -92 35.5 -175.5t96 -143.5t143.5 -96t175 -36t175.5 36t143.5 96t96 143.5t36 175.5v0q0 92 -36 175t-96 143.5t-143.5 96t-175.5 35.5t-175 -35.5t-143.5 -96t-96 -144t-35.5 -174.5zM883.5 542q-5.5 5 -13 4.5t-11.5 -5.5l-272 -288l-146 146
q-11 11 -23 0q-5 -5 -5 -12t5 -11l154 -155q5 -10 16 -10v0q8 0 13 6l283 300q5 5 5 12.5t-5.5 12.5z" />
    <glyph glyph-name="xiala" unicode="&#xe60a;" horiz-adv-x="1365" 
d="M657.5 -102q-97.5 0 -186 36.5t-157.5 105.5t-105.5 158t-36.5 186t36.5 186t105.5 158t157.5 105.5t186 36.5t186.5 -36.5t158 -105.5t105.5 -158t36.5 -186t-36.5 -186t-105.5 -158t-158 -105.5t-186.5 -36.5zM657.5 839q-92.5 0 -176.5 -36t-145 -97t-97 -145.5
t-36 -176.5t36 -176.5t97 -145.5t145 -97t176.5 -36t177 36t145.5 97t97 145.5t36 176.5t-36 176.5t-97 145.5t-145.5 97t-177 36zM457 587l157 -92h64l159 92l-179 -463z" />
  </font>
</defs>
</svg>
